<svg width="49" height="13" viewBox="0 0 49 13" fill="none" xmlns="http://www.w3.org/2000/svg">
<path d="M3.48466 12H5.59266V0.320999H3.89266L0.611664 2.548L1.47866 4.044L3.48466 2.769V12ZM14.0311 4.537C12.8411 4.537 11.7191 5.03 11.0051 5.863C11.1411 3.568 12.3141 1.987 13.9631 1.987C15.0001 1.987 15.7141 2.412 16.4281 3.041L17.4651 1.426C16.5301 0.626999 15.4251 0.116999 13.9801 0.116999C10.9371 0.116999 8.81209 2.752 8.81209 6.356C8.81209 9.722 10.2911 12.204 13.6061 12.204C16.1221 12.204 17.9581 10.538 17.9581 8.226C17.9581 5.897 16.1731 4.537 14.0311 4.537ZM13.5041 10.402C12.0931 10.402 11.3621 9.433 11.1071 7.886C11.4471 6.9 12.3481 6.271 13.4701 6.271C14.7451 6.271 15.7991 7.036 15.7991 8.311C15.7991 9.382 14.9321 10.402 13.5041 10.402ZM24.9037 12.204C27.5727 12.204 29.3917 10.64 29.3917 8.226C29.3917 5.88 27.6067 4.554 25.5327 4.554C24.5297 4.554 23.7647 4.86 23.1697 5.268L23.2717 2.259H28.7627V0.320999H21.2827L21.1127 6.526L22.5577 7.138C23.2207 6.628 24.0197 6.322 24.9377 6.322C26.3317 6.322 27.2667 7.121 27.2667 8.311C27.2667 9.45 26.3657 10.368 24.9377 10.368C23.7647 10.368 22.6937 9.773 21.7927 8.889L20.5347 10.402C21.5717 11.49 22.9997 12.204 24.9037 12.204ZM34.3753 12H36.4833V0.320999H34.7833L31.5023 2.548L32.3693 4.044L34.3753 2.769V12ZM44.0887 0.116999C41.5727 0.116999 39.7367 1.783 39.7367 4.095C39.7367 6.424 41.5217 7.784 43.6637 7.784C44.8537 7.784 45.9757 7.291 46.6897 6.458C46.5537 8.753 45.3807 10.334 43.7317 10.334C42.6947 10.334 41.9807 9.909 41.2667 9.28L40.2297 10.895C41.1647 11.694 42.2697 12.204 43.7147 12.204C46.7577 12.204 48.8827 9.569 48.8827 5.965C48.8827 2.599 47.4037 0.116999 44.0887 0.116999ZM44.2247 6.05C42.9497 6.05 41.8957 5.285 41.8957 4.01C41.8957 2.939 42.7627 1.919 44.1907 1.919C45.6017 1.919 46.3327 2.888 46.5877 4.435C46.2477 5.421 45.3467 6.05 44.2247 6.05Z" fill="#010101"/>
</svg>
